<svg width="0" height="0" class="hidden">
  <symbol xmlns="http://www.w3.org/2000/svg" viewBox="0 0 512 512" id="css-3">
    <path fill="#2196f3" d="M32 0l40.8 460.8L256 512l183.136-51.168L480 0z"></path>
    <path fill="#fafafa" d="M392.768 150.688l-5.152 57.888-15.552 173.536L256 414.208l-.096.032-116-32.128-8.096-90.752h56.832l4.224 47.072 63.072 17.024.032-.032 63.168-17.024 8.608-78.432-198.656.544-5.632-53.632 209.056-2.464 4.224-57.408-218.88.608-3.68-53.408h283.648z"></path>
  </symbol>
  <symbol xmlns="http://www.w3.org/2000/svg" viewBox="0 0 120 60" id="express">
    <title>Artboard 12</title>
    <path d="M40.011 41.753V18.708h1.251v3.625a4.74 4.74 0 00.409-.51 6.195 6.195 0 015.65-3.507c2.852-.085 5.166.97 6.528 3.507a11.267 11.267 0 01.272 10.33c-1.268 2.843-4.4 4.256-7.752 3.737a6.272 6.272 0 01-5.004-3.302v9.165zm1.251-14.892c.111 1.123.154 1.923.281 2.706.494 3.08 2.315 4.91 5.174 5.242a5.88 5.88 0 006.46-3.736 10.016 10.016 0 00-.222-8.238 5.761 5.761 0 00-6.067-3.353 5.608 5.608 0 00-5.013 4.145 28.424 28.424 0 00-.613 3.234zm39.496 3.131a6.74 6.74 0 01-6.587 5.957c-5.242.264-7.701-3.216-8.093-7.233a11.59 11.59 0 011.021-6.383 7.123 7.123 0 017.413-3.974 6.808 6.808 0 016.042 5.183 34.968 34.968 0 01.587 3.83H67.363c-.255 3.642 1.702 6.569 4.476 7.275 3.456.851 6.409-.646 7.48-3.931.24-.843.673-.962 1.44-.724zm-13.395-3.787h12.314c-.076-3.88-2.493-6.689-5.77-6.731-3.71-.06-6.382 2.646-6.544 6.731zm15.931 3.872h1.209a4.842 4.842 0 002.842 4.17 7.43 7.43 0 006.45-.17 2.902 2.902 0 001.703-2.85 2.63 2.63 0 00-1.77-2.63c-1.328-.494-2.74-.766-4.094-1.2a29.998 29.998 0 01-4.119-1.507c-2.178-1.063-2.314-5.208.153-6.518a8.689 8.689 0 018.306-.128 4.374 4.374 0 012.213 4.46h-1.038c0-.052-.094-.094-.094-.145-.127-3.31-2.902-4.332-5.88-4.043a7.804 7.804 0 00-2.553.775 2.553 2.553 0 00-1.481 2.553 2.553 2.553 0 001.702 2.4c1.31.476 2.68.783 4.025 1.157 1.081.298 2.204.494 3.251.851a3.838 3.838 0 012.638 3.464 4.093 4.093 0 01-2.204 4.255c-2.842 1.608-7.523 1.183-9.608-.851a5.676 5.676 0 01-1.65-4.043zm28.781-6.374h-1.131c0-.153-.06-.29-.077-.417a3.702 3.702 0 00-3.013-3.557 7.43 7.43 0 00-4.774.23 2.902 2.902 0 00-2.102 2.766 2.672 2.672 0 002.043 2.689c1.702.527 3.446.85 5.174 1.327a14.467 14.467 0 011.65.503 4.255 4.255 0 01.23 7.922 9.472 9.472 0 01-7.659.077 5.31 5.31 0 01-3.2-5.157h1.107a6.204 6.204 0 009.446 3.949 3.038 3.038 0 001.634-2.843 2.63 2.63 0 00-1.795-2.612c-1.328-.494-2.74-.758-4.094-1.192a30.151 30.151 0 01-4.144-1.49c-2.128-1.046-2.298-5.156.127-6.467a8.57 8.57 0 018.442-.093 4.45 4.45 0 012.136 4.365zM37.944 35.532a1.949 1.949 0 01-2.417-.919c-1.388-2.076-2.92-4.059-4.392-6.084l-.638-.851c-1.753 2.348-3.506 4.604-5.106 6.944a1.872 1.872 0 01-2.298.902l6.579-8.825-6.12-7.974a2.034 2.034 0 012.426.85c1.421 2.077 2.996 4.06 4.562 6.162 1.574-2.085 3.131-4.076 4.587-6.136a1.83 1.83 0 012.28-.85l-2.374 3.148c-1.064 1.404-2.11 2.817-3.217 4.187a.851.851 0 000 1.268c2.034 2.698 4.051 5.404 6.128 8.178zm27.93-16.892v1.191a6.17 6.17 0 00-6.57 6.374v9.361h-1.217V18.708h1.191v3.455c1.473-2.52 3.745-3.455 6.596-3.523zM7.333 26.588c.178-.85.289-1.778.536-2.646 1.472-5.234 7.472-7.413 11.599-4.17 2.417 1.897 3.021 4.587 2.902 7.616H8.754c-.222 5.413 3.685 8.68 8.68 7.013a5.183 5.183 0 003.293-3.668c.264-.851.69-.996 1.498-.75a6.91 6.91 0 01-3.302 5.047 8 8 0 01-9.318-1.191A8.383 8.383 0 017.51 28.92c0-.29-.11-.579-.17-.851q-.008-.757-.008-1.48zm1.438-.366h12.314c-.077-3.923-2.553-6.706-5.855-6.731-3.676-.051-6.306 2.672-6.468 6.714z"></path>
  </symbol>
  <symbol xmlns="http://www.w3.org/2000/svg" preserveAspectRatio="xMidYMid" viewBox="0 0 256 288" id="graphql">
    <path d="M152.576 32.963l59.146 34.15a25.819 25.819 0 015.818-4.604c12.266-7.052 27.912-2.865 35.037 9.402 7.052 12.267 2.865 27.912-9.402 35.037a25.698 25.698 0 01-6.831 2.72v68.325a25.7 25.7 0 016.758 2.702c12.34 7.125 16.527 22.771 9.402 35.038-7.052 12.266-22.771 16.453-35.038 9.402a25.464 25.464 0 01-6.34-5.147l-58.786 33.94a25.671 25.671 0 011.295 8.08c0 14.103-11.458 25.636-25.635 25.636-14.177 0-25.635-11.46-25.635-25.636 0-2.52.362-4.954 1.037-7.253l-59.13-34.14a25.824 25.824 0 01-5.738 4.52c-12.34 7.051-27.986 2.864-35.038-9.402-7.051-12.267-2.864-27.913 9.402-35.038a25.71 25.71 0 016.758-2.703v-68.324a25.698 25.698 0 01-6.831-2.72C.558 99.897-3.629 84.178 3.423 71.911c7.052-12.267 22.77-16.454 35.037-9.402a25.82 25.82 0 015.79 4.575l59.163-34.159a25.707 25.707 0 01-1.048-7.29C102.365 11.46 113.823 0 128 0c14.177 0 25.635 11.459 25.635 25.635 0 2.548-.37 5.007-1.059 7.328zm-6.162 10.522l59.287 34.23a25.599 25.599 0 002.437 19.831c3.609 6.278 9.488 10.44 16.013 12.062v68.41c-.333.081-.664.17-.993.264L145.725 44.17c.234-.224.464-.452.689-.684zm-36.123.7l-77.432 134.11a25.824 25.824 0 00-1.01-.27v-68.417c6.525-1.622 12.404-5.784 16.013-12.062a25.6 25.6 0 002.427-19.869l59.27-34.22c.239.247.483.49.732.727zm24.872 6.075l77.414 134.08a25.492 25.492 0 00-4.513 5.757 25.7 25.7 0 00-2.702 6.758H50.64a25.71 25.71 0 00-2.704-6.758 25.825 25.825 0 00-4.506-5.724l77.429-134.107A25.715 25.715 0 00128 51.27c2.487 0 4.89-.352 7.163-1.01zm11.795 194.478l58.902-34.008a25.865 25.865 0 01-.473-1.682H50.607a25.87 25.87 0 01-.266.992l59.19 34.175A25.558 25.558 0 01128 236.373a25.564 25.564 0 0118.958 8.365z" fill="#E535AB" fill-rule="evenodd"></path>
  </symbol>
  <symbol xmlns="http://www.w3.org/2000/svg" viewBox="0 0 434.147 434.147" id="html-5">
    <path d="M27.336 14.372l28.177 360.474a13.333 13.333 0 009.263 11.67l148.268 47.008c2.622.831 5.437.831 8.059 0l148.268-47.008a13.333 13.333 0 009.263-11.67l28.177-360.474C407.417 6.622 401.292 0 393.519 0H40.629c-7.773 0-13.898 6.622-13.293 14.372zm307.217 111.843H150.918l5.542 51.105h174.099L319.17 323.013l-102.096 32.369-102.096-32.369-5.95-76.116h53.588v37.336l55.89 15 55.556-15 4.31-59.503H107.295L95.937 79.419H338.21l-3.657 46.796z" fill="#fc490b"></path>
  </symbol>
  <symbol xmlns="http://www.w3.org/2000/svg" viewBox="0 0 48 48" id="javascript">
    <path d="M6 42V6h36v36zm0 0" fill="#ffd600"></path>
    <path d="M29.54 32.945c.69 1.125 1.44 2.203 3.034 2.203 1.34 0 2.04-.664 2.04-1.586 0-1.101-.723-1.492-2.196-2.132l-.809-.344c-2.328-.988-3.879-2.227-3.879-4.84 0-2.41 1.848-4.246 4.73-4.246 2.052 0 3.528.71 4.59 2.574l-2.51 1.606c-.556-.989-1.153-1.375-2.08-1.375-.944 0-1.546.597-1.546 1.375 0 .965.602 1.355 1.984 1.953l.809.344C36.453 29.645 38 30.84 38 33.523 38 36.414 35.715 38 32.648 38c-2.996 0-4.699-1.504-5.648-3.367zm-11.587.082c.504.907 1.274 1.606 2.379 1.606 1.059 0 1.668-.418 1.668-2.043V22h3.332v11.102c0 3.367-1.953 4.898-4.805 4.898-2.578 0-4.437-1.746-5.195-3.367zm0 0" fill="#000001"></path>
  </symbol>
  <symbol xmlns="http://www.w3.org/2000/svg" preserveAspectRatio="xMidYMid" viewBox="0 0 256 204" id="material-ui">
    <path fill="#00B0FF" d="M0 110.848V0l96 55.424v36.95l-64-36.95v73.899z"></path>
    <path fill="#0081CB" d="M96 55.424L192 0v110.848l-64 36.95-32-18.475 64-36.95V55.424l-64 36.95z"></path>
    <path fill="#00B0FF" d="M96 129.323v36.949l64 36.95v-36.95z"></path>
    <path d="M160 203.221l96-55.424V73.9l-32 18.474v36.95l-64 36.949v36.95zm64-147.797v-36.95L256 0v36.95l-32 18.474z" fill="#0081CB"></path>
  </symbol>
  <symbol xmlns="http://www.w3.org/2000/svg" viewBox="0 0 48 48" id="mongodb">
    <path fill="#5d4037" d="M42 17.3C42 37.8 24 44 24 44S6 37.8 6 17.3c0-2.5.2-4.6.4-6.3.3-2.5 2-4.5 4.4-5.1C13.9 5 18.8 4 24 4s10.1 1 13.3 1.9c2.4.6 4.1 2.7 4.4 5.1.1 1.7.3 3.9.3 6.3z"></path>
    <path fill="#4caf50" d="M24 7c4.9 0 9.5 1 12.5 1.8 1.2.3 2 1.3 2.2 2.6.2 1.9.3 3.9.3 5.9 0 15.6-11.5 21.9-15 23.4-3.5-1.6-15-7.9-15-23.4 0-2 .1-4 .3-5.9.1-1.3 1-2.3 2.2-2.6C14.5 8 19.1 7 24 7m0-3c-5.2 0-10.1 1-13.3 1.9-2.3.6-4.1 2.7-4.3 5.1-.2 1.7-.4 3.9-.4 6.3C6 37.8 24 44 24 44s18-6.2 18-26.7c0-2.5-.2-4.6-.4-6.3-.3-2.5-2-4.5-4.4-5.1C34.1 5 29.2 4 24 4z"></path>
    <path fill="#dcedc8" d="M23 28h2v8h-2z"></path>
    <path fill="#4caf50" d="M24 10s-6 5-6 13c0 5.2 3.3 8.5 5 10l1-3 1 3c1.7-1.5 5-4.8 5-10 0-8-6-13-6-13z"></path>
    <path fill="#81c784" d="M24 10s-6 5-6 13c0 5.2 3.3 8.5 5 10l1-3V10z"></path>
  </symbol>
  <symbol xmlns="http://www.w3.org/2000/svg" viewBox="0 0 48 48" id="node">
    <path fill="#388e3c" d="M17.204 19.122l-4.907 2.715a.563.563 0 00-.297.492v5.433c0 .203.113.39.297.492l4.908 2.717c.183.101.41.101.593 0l4.907-2.717a.566.566 0 00.295-.492v-5.433a.564.564 0 00-.297-.492l-4.906-2.715a.613.613 0 00-.594 0m25.248 4.891l-.818.452a.093.093 0 00-.049.082v.906c0 .034.019.065.049.082l.818.453a.102.102 0 00.099 0l.818-.453a.095.095 0 00.049-.082v-.906a.094.094 0 00-.05-.082l-.818-.452c-.015-.009-.032-.013-.049-.013s-.034.004-.049.013"></path>
    <path fill="#37474f" d="M35.751 13.364l-2.389-1.333a.243.243 0 00-.361.212L33 20.295l-2.203-1.219a.613.613 0 00-.594 0h.001l-4.907 2.715a.563.563 0 00-.297.491v5.433c0 .203.113.39.297.492l4.908 2.717c.183.101.41.101.593 0l4.907-2.717a.565.565 0 00.295-.492V13.788a.487.487 0 00-.249-.424zm-2.885 13.094l-2.23 1.235a.28.28 0 01-.269 0l-2.231-1.235a.255.255 0 01-.136-.224v-2.47c0-.092.051-.177.135-.224l2.231-1.234h-.001a.29.29 0 01.27 0l2.23 1.234a.259.259 0 01.135.225v2.47a.257.257 0 01-.134.223z"></path>
    <path fill="#2e7d32" d="M17.204 19.122L12 27.762c0 .203.113.39.297.492l4.908 2.717c.183.101.41.101.593 0L23 22.329a.564.564 0 00-.297-.492l-4.906-2.715a.613.613 0 00-.594 0"></path>
    <path fill="#4caf50" d="M17.204 19.122l-4.907 2.715a.563.563 0 00-.297.492l5.204 8.642c.183.101.41.101.593 0l4.907-2.717a.565.565 0 00.296-.492l-5.203-8.64a.613.613 0 00-.594 0"></path>
    <path fill="#37474f" d="M47.703 21.791l-4.906-2.715a.613.613 0 00-.594 0h.001l-4.907 2.715a.574.574 0 00-.297.503v5.411c0 .209.114.402.297.503l4.908 2.717a.613.613 0 00.593 0l2.263-1.253a.3.3 0 00-.002-.526l-4.924-2.687a.263.263 0 01-.135-.228v-2.466c0-.092.05-.177.13-.221l2.235-1.236h-.001a.29.29 0 01.27 0l2.235 1.237c.08.044.13.129.13.221v2.012a.241.241 0 00.363.208l2.398-1.393a.483.483 0 00.24-.417v-1.88a.576.576 0 00-.297-.505zm-37 0l-4.906-2.715a.613.613 0 00-.594 0h.001L.297 21.791a.574.574 0 00-.297.503v7.465a.241.241 0 00.363.208l2.398-1.393A.482.482 0 003 28.157v-4.393c0-.092.05-.177.13-.221l2.235-1.236a.29.29 0 01.27 0l2.235 1.237c.08.044.13.129.13.221v4.393a.48.48 0 00.24.417l2.398 1.393a.246.246 0 00.242.001.245.245 0 00.12-.21v-7.464a.576.576 0 00-.297-.504z"></path>
  </symbol>
  <symbol xmlns="http://www.w3.org/2000/svg" viewBox="0 0 48 48" id="postgresql">
    <path d="M44.082 29.79c-.184-.83-.934-1.798-2.45-1.798-.312 0-.652.04-1.034.121-.711.145-1.313.215-1.844.242 4.133-7.043 6.816-16.82 4.16-20.214C39.41 3.668 34.7 3 32.204 3h-.235c-.93.016-1.895.129-2.864.34l-3.585.773A13.337 13.337 0 0024.02 4h-.2c-1.593 0-3.047.336-4.34.973l-1.253-.493c-1.72-.68-4.305-1.488-6.868-1.488-.144 0-.285.004-.43.012-2.523.09-4.687 1.047-6.265 2.766-1.969 2.144-2.863 5.285-2.66 9.332C2.012 15.309 4.46 36 11.398 36h.09c.903-.023 1.762-.387 2.563-1.078.613.46 1.406.73 2.144.84.489.117 1.367.277 2.418.277 1.285 0 2.446-.262 3.442-.738 0 .883-.004 1.996-.016 3.418v.078l.004.074c.098 1.418.344 2.695.71 3.7 1.052 2.859 2.868 4.433 5.11 4.433.094 0 .192 0 .285-.008 1.848-.113 3.72-1.152 5.004-2.773 1.395-1.754 1.715-3.606 1.84-5.024l.008-.09v-4.164l.102.008.437.04.043.003h.04c.124.008.253.012.382.012 1.508 0 3.363-.395 4.617-.977 1.2-.554 3.938-2.082 3.461-4.242zm0 0" fill="#fff"></path>
    <path d="M33 34c0-.203.012-.375.02-.566L33 33l.031-.023c.149-2.672.887-3.704 1.676-4.29-.11-.152-.238-.316-.355-.472-.332-.438-.75-.98-1.192-1.676l-.082-.156c-.066-.164-.23-.45-.437-.82-1.18-2.141-3.645-6.594-1.957-9.407.738-1.23 2.12-1.941 4.12-2.117-.82-2.32-3.878-7.926-10.82-8.039h-.004c-6.043-.098-8.027 5.39-8.671 8.672.886-.375 1.906-.606 2.836-.606h.043c2.289.016 3.863 1.239 4.32 3.356.336 1.55.496 2.906.492 4.152-.008 2.719-.559 4.149-1.04 5.41l-.155.407a19.93 19.93 0 01-.38.937c-.124.3-.238.563-.316.805.485.11.864.262 1.125.379l.149.066c.047.02.094.043.137.067.847.515 1.378 1.308 1.492 2.234.058.5.05 3.894.027 6.855.09 1.286.305 2.364.594 3.145.41 1.113 1.43 3.242 3.394 3.121 1.371-.086 2.688-.922 3.563-2.02.937-1.18 1.281-2.488 1.414-3.957V34zm0 0" fill="#0277bd"></path>
    <path d="M15.113 28.918c-1.613-1.684-2.398-3.95-2.101-6.059.285-2.035.12-4.023.035-5.097a12.922 12.922 0 01-.047-.77c0-.008.004-.015.004-.023 0-.004-.004-.004-.004-.008.121-3.023 1.285-7.79 4.492-10.621C15.934 5.723 13.387 4.914 11 5c-3.742.137-7.363 2.723-7 10 .137 2.73 3.223 19.102 7.441 19 .602-.016 1.227-.402 1.871-1.176a93.98 93.98 0 012.708-3.105 7.518 7.518 0 01-.907-.801zm21.91-14.188c.016.157 0 .286-.023.41.031.919-.066 1.813-.168 2.676a24.352 24.352 0 00-.172 1.954c-.02.644.07 1.28.168 1.953.223 1.578.457 3.359-.766 5.437.223.297.422.57.583.836 4.609-7.473 6.464-16.36 4.695-18.625C38.656 5.945 34.94 4.953 32 5c-.922.016-1.758.14-2.473.293 5.075 2.46 7.336 7.734 7.496 9.437zM41 30.07c-2.664.551-3.945.258-4.57-.125-.098.07-.2.133-.293.192-.371.222-.961.582-1.106 2.781.086.016.157.023.246.043l.438.039c1.32.059 3.047-.309 4.062-.781 2.184-1.016 3.375-2.59 1.223-2.149zm-18.977 2.047c-.039-.297-.199-.539-.492-.73l-.11-.047c-.358-.16-.769-.34-1.421-.34h-.004a4.08 4.08 0 01-.379.02c-.055 0-.105-.008-.156-.008-.473.363-1.148.644-2.816.988-2.98.758-1.22 1.656-.079 1.793 1.106.277 3.735.613 5.48-.809a13.61 13.61 0 00-.023-.867zm0 0" fill="#0277bd"></path>
    <path d="M20.68 18.5c-.29.305-.75.566-1.262.484-.828-.132-1.461-1.132-1.414-1.507.043-.375.75-.57 1.574-.434.29.047.55.129.77.227-.32-.688-.899-1.086-1.782-1.18-1.566-.176-3.226.64-3.558 1.094.004.113.02.253.031.418.094 1.148.266 3.285-.05 5.539-.208 1.484.394 3.168 1.566 4.394.758.79 1.64 1.29 2.515 1.438.11-.48.309-.946.512-1.426.113-.266.234-.547.348-.852l.16-.425c.441-1.157.898-2.352.91-4.704.004-.906-.11-1.937-.32-3.066zm14.168 3.508c-.106-.73-.211-1.485-.188-2.305.024-.742.106-1.441.188-2.117.058-.535.109-1.047.136-1.55-1.289.105-2.144.48-2.55 1.109a2.57 2.57 0 01.566-.13c.895-.117 1.543.141 1.617.637.059.364-.25.703-.387.836a1.75 1.75 0 01-.98.489 1.682 1.682 0 01-1.14-.29c.113 1.973 1.566 4.614 2.28 5.907.157.277.274.5.372.687.39-1.117.246-2.136.086-3.273zm0 0" fill="#0277bd"></path>
  </symbol>
  <symbol xmlns="http://www.w3.org/2000/svg" viewBox="0 0 48 48" id="react">
    <path fill="#80deea" d="M24 34C11.1 34 1 29.6 1 24s10.1-10 23-10 23 4.4 23 10-10.1 10-23 10zm0-18c-12.6 0-21 4.1-21 8 0 3.9 8.4 8 21 8s21-4.1 21-8c0-3.9-8.4-8-21-8z"></path>
    <path fill="#80deea" d="M15.1 44.6c-1 0-1.8-.2-2.6-.7-4.9-2.8-3.6-13.7 2.8-24.9 3-5.2 6.7-9.6 10.3-12.4 3.9-3 7.4-3.9 9.8-2.5 2.5 1.4 3.4 4.9 2.8 9.8-.6 4.6-2.6 10-5.6 15.2-3 5.2-6.7 9.6-10.3 12.4-2.6 2-5.1 3.1-7.2 3.1zM32.9 5.4c-1.6 0-3.7.9-6 2.7C23.5 10.8 20 15 17.1 20c-6.3 10.9-6.9 20.3-3.6 22.2 1.7 1 4.5.1 7.6-2.3C24.5 37.2 28 33 30.9 28c2.9-5 4.8-10.1 5.4-14.4.5-4-.1-6.8-1.8-7.8-.5-.2-1-.4-1.6-.4z"></path>
    <path fill="#80deea" d="M33 44.6c-5 0-12.2-6.1-17.6-15.6C8.9 17.8 7.6 6.9 12.5 4.1 17.4 1.3 26.2 7.8 32.7 19c3 5.2 5 10.6 5.6 15.2.7 4.9-.3 8.3-2.8 9.8-.8.4-1.6.6-2.5.6zM13.5 5.8c-3.3 1.9-2.7 11.3 3.6 22.2 6.3 10.9 14.1 16.1 17.4 14.2 1.7-1 2.3-3.8 1.8-7.8-.6-4.3-2.5-9.4-5.4-14.4C24.6 9.1 16.8 3.9 13.5 5.8z"></path>
    <circle cx="24" cy="24" r="4" fill="#80deea"></circle>
  </symbol>
  <symbol xmlns="http://www.w3.org/2000/svg" transform="rotate(360)" viewBox="0 0 256 247" id="reactivex">
    <defs>
      <radialGradient cx="78.764%" cy="37.848%" fx="78.764%" fy="37.848%" r="89.873%" id="a">
        <stop stop-color="#F80090" offset="0%"></stop>
        <stop stop-color="#4D008E" offset="100%"></stop>
      </radialGradient>
      <radialGradient cx="68.739%" cy="4.398%" fx="68.739%" fy="4.398%" r="81.728%" id="b">
        <stop stop-color="#57008E" offset="0%"></stop>
        <stop stop-color="#5C008E" offset="29.175%"></stop>
        <stop stop-color="#F80090" offset="100%"></stop>
      </radialGradient>
      <linearGradient x1="18.239%" y1="0%" x2="81.159%" y2="84.337%" id="c">
        <stop stop-color="#F70090" offset="0%"></stop>
        <stop stop-color="#E50090" offset="66.971%"></stop>
        <stop stop-color="#D6008F" stop-opacity=".2" offset="82.715%"></stop>
        <stop stop-color="#C10090" stop-opacity="0" offset="100%"></stop>
      </linearGradient>
      <linearGradient x1="64.906%" y1="71.559%" x2="44.29%" y2="50%" id="d">
        <stop stop-color="#B2008F" stop-opacity=".151" offset="0%"></stop>
        <stop stop-color="#F70090" stop-opacity=".4" offset="40.035%"></stop>
        <stop stop-color="#F60090" stop-opacity=".892" offset="64.9%"></stop>
        <stop stop-color="#FF0090" offset="100%"></stop>
      </linearGradient>
    </defs>
    <path d="M16.685 157.125C3.567 87.38 38.236 20.115 117.81 11.166 106.836-.559 91.845-.647 84.949.78 72.77 4.66 73.152 12.541 59.338 22.72c-13.733 7.843-20.63 1.837-30.633 9.968-9.983 8.07-3.017 26.597-7.204 30.2-4.156 7.203-17.047 13.62-19.394 22.718-1.94 11.636 5.264 19.948 4.987 29.922.832 8.311-8.274 13.011-6.966 19.748 3.919 11.005 11.472 17.629 15.033 20.682.816.576 1.678 1.993 1.523 1.167z" fill="#FF0090"></path>
    <path d="M158.275 60.579a5.264 5.264 0 11.001-10.53 5.264 5.264 0 010 10.53zM19.757 164.733C7.15 104.117 46.16 53.468 121.704 78.403c44.327 25.932 100.09 24.243 102.603 7.48 6.207-20.095-28.26-61.506-79.792-72.311C42.281-6.377-12.834 104.117 19.757 164.732z" fill="url(#a)"></path>
    <path d="M187.459 171.493c15.18 1.645 29.59-1.998 42.943-12.883-20.174 22.503-45.4 33.817-74.343 36.895 13.82 11.749 27.147 17.041 39.896 14.776-35.426 9.776-65.107-.984-101.213-36.94-1.89 9.679 8.333 24.76 18.87 34.386-61.138-26.505-66.498-109.073 8.053-129.383-77.28-37.13-120.979 35.014-99.51 94.142 21.007 45.54 76.985 80.6 138.337 72.89 29.8-3.65 74.302-24.197 92.482-72.89-12.813 11.498-35.716 21.512-45.936 22.28 34.59-17.287 53.264-46.662 48.022-86.81-7.165 17.058-16.619 30.159-28.444 39.156 25.12-39.157 20.81-59.396 2.217-81.639 13.298 36.572-3.905 77.161-41.374 106.02z" fill="url(#b)"></path>
    <path d="M169.707 213.626c-2.625-.49 5.95 3.473-10.628-.916-16.577-4.388-33.456-8.617-64.337-39.37-1.89 9.68 8.333 24.76 18.87 34.387 28.444 19.838 9.1 10.56 52.44 25.542 3.478-6.922 3.655-13.074 3.655-19.643z" fill="url(#c)"></path>
    <path d="M114.601 57.851s3.768-5.562 5.235-8.07c1.798-3.074 4.558-8.676 4.558-8.676S95.39 31.642 88.272 30.487c-22.127 5.744-22.207 15.014-9.837 29.203 1.376 1.58 36.166-1.839 36.166-1.839z" fill="url(#d)"></path>
    <path fill="rgba(0, 0, 0, 0)" d="M0 0h256v247H0z"></path>
  </symbol>
  <symbol xmlns="http://www.w3.org/2000/svg" preserveAspectRatio="xMidYMid" viewBox="0 0 256 244" id="redux">
    <path d="M177.381 169.733c9.447-.978 16.614-9.122 16.288-18.896-.325-9.773-8.47-17.592-18.243-17.592h-.651c-10.1.326-17.918 8.796-17.592 18.895.326 4.887 2.28 9.122 5.212 12.054-11.076 21.828-28.016 37.791-53.426 51.148-17.266 9.122-35.183 12.38-53.1 10.1-14.66-1.955-26.062-8.47-33.23-19.222-10.424-15.963-11.401-33.23-2.605-50.496 6.19-12.38 15.962-21.502 22.152-26.063-1.303-4.235-3.258-11.402-4.235-16.614-47.237 34.207-42.35 80.468-28.016 102.295 10.75 16.29 32.577 26.389 56.684 26.389 6.515 0 13.03-.652 19.546-2.28 41.699-8.145 73.299-32.905 91.216-69.718zm57.336-40.397c-24.759-28.995-61.245-44.958-102.944-44.958h-5.212c-2.932-5.864-9.122-9.774-15.963-9.774h-.652C99.848 74.93 92.03 83.4 92.355 93.5c.326 9.773 8.47 17.592 18.243 17.592h.651c7.167-.326 13.357-4.887 15.963-11.077h5.864c24.759 0 48.214 7.167 69.39 21.176 16.288 10.751 28.016 24.76 34.531 41.7 5.538 13.683 5.212 27.04-.652 38.443-9.121 17.266-24.432 26.714-44.63 26.714-13.031 0-25.41-3.91-31.926-6.842-3.583 3.258-10.099 8.47-14.66 11.729 14.009 6.515 28.343 10.099 42.025 10.099 31.274 0 54.404-17.267 63.2-34.533 9.447-18.896 8.795-51.474-15.637-79.165zM69.225 175.27c.326 9.774 8.47 17.592 18.243 17.592h.652c10.099-.325 17.917-8.796 17.591-18.895-.325-9.774-8.47-17.592-18.243-17.592h-.651c-.652 0-1.63 0-2.28.325-13.357-22.153-18.895-46.26-16.94-72.323 1.302-19.547 7.818-36.488 19.22-50.497 9.447-12.054 27.69-17.918 40.07-18.243 34.531-.652 49.19 42.351 50.168 59.618 4.235.977 11.402 3.258 16.289 4.887C189.434 27.366 156.857 0 125.584 0c-29.32 0-56.359 21.176-67.11 52.451-14.985 41.7-5.212 81.771 13.031 113.372-1.628 2.28-2.606 5.864-2.28 9.448z" fill="#764ABC"></path>
  </symbol>
  <symbol xmlns="http://www.w3.org/2000/svg" preserveAspectRatio="xMidYMid" viewBox="0 0 256 250" id="redux-observable">
    <defs>
      <radialGradient cx="56.915%" cy="88.883%" fx="56.915%" fy="88.883%" r="141.731%" id="c">
        <stop stop-color="#EC178D" offset="0%"></stop>
        <stop stop-color="#CB1C8C" offset="24%"></stop>
        <stop stop-color="#772888" offset="77%"></stop>
        <stop stop-color="#512E87" offset="100%"></stop>
      </radialGradient>
      <radialGradient cx="37.433%" cy="107.317%" fx="37.433%" fy="107.317%" r="81.744%" id="d">
        <stop stop-color="#BA258E" offset="0%"></stop>
        <stop stop-color="#B5258D" offset="23%"></stop>
        <stop stop-color="#A5278B" offset="51%"></stop>
        <stop stop-color="#8B2987" offset="83%"></stop>
        <stop stop-color="#7A2A85" offset="100%"></stop>
      </radialGradient>
      <radialGradient cx="-17.811%" cy="68.576%" fx="-17.811%" fy="68.576%" r="115.436%" id="e">
        <stop stop-color="#E21A8D" offset="9%"></stop>
        <stop stop-color="#952584" offset="100%"></stop>
      </radialGradient>
      <radialGradient cx="5.239%" cy="62.227%" fx="5.239%" fy="62.227%" r="80.217%" id="f">
        <stop stop-color="#E21A8D" offset="9%"></stop>
        <stop stop-color="#952584" offset="100%"></stop>
      </radialGradient>
      <radialGradient cx="6.172%" cy="59.656%" fx="6.172%" fy="59.656%" r="84.764%" id="g">
        <stop stop-color="#E21A8D" offset="9%"></stop>
        <stop stop-color="#952584" offset="100%"></stop>
      </radialGradient>
      <radialGradient cx="22.051%" cy="60.48%" fx="22.051%" fy="60.48%" r="133.159%" id="h">
        <stop stop-color="#E21A8D" offset="0%"></stop>
        <stop stop-color="#DF1A8D" offset="25%"></stop>
        <stop stop-color="#D51C8C" offset="44%"></stop>
        <stop stop-color="#C51E8A" offset="60%"></stop>
        <stop stop-color="#AF2187" offset="76%"></stop>
        <stop stop-color="#952584" offset="89%"></stop>
      </radialGradient>
      <radialGradient cx="95.195%" cy="26.553%" fx="95.195%" fy="26.553%" r="109.021%" id="k">
        <stop stop-color="#EC178D" offset="0%"></stop>
        <stop stop-color="#CB1C8C" offset="24%"></stop>
        <stop stop-color="#772888" offset="77%"></stop>
        <stop stop-color="#512E87" offset="100%"></stop>
      </radialGradient>
      <radialGradient cx="103.82%" cy="39.48%" fx="103.82%" fy="39.48%" r="117.774%" id="l">
        <stop stop-color="#BA258E" offset="0%"></stop>
        <stop stop-color="#B5258D" offset="23%"></stop>
        <stop stop-color="#A5278B" offset="51%"></stop>
        <stop stop-color="#8B2987" offset="83%"></stop>
        <stop stop-color="#7A2A85" offset="100%"></stop>
      </radialGradient>
      <radialGradient cx="101.124%" cy="82.932%" fx="101.124%" fy="82.932%" r="100.72%" id="m">
        <stop stop-color="#E21A8D" offset="9%"></stop>
        <stop stop-color="#952584" offset="100%"></stop>
      </radialGradient>
      <radialGradient cx="98.549%" cy="73.094%" fx="98.549%" fy="73.094%" r="110.462%" id="n">
        <stop stop-color="#E21A8D" offset="9%"></stop>
        <stop stop-color="#952584" offset="100%"></stop>
      </radialGradient>
      <radialGradient cx="99.552%" cy="72.246%" fx="99.552%" fy="72.246%" r="112.772%" id="o">
        <stop stop-color="#E21A8D" offset="9%"></stop>
        <stop stop-color="#952584" offset="100%"></stop>
      </radialGradient>
      <radialGradient cx="77.36%" cy="60.365%" fx="77.36%" fy="60.365%" r="125.523%" id="p">
        <stop stop-color="#E21A8D" offset="0%"></stop>
        <stop stop-color="#DF1A8D" offset="25%"></stop>
        <stop stop-color="#D51C8C" offset="44%"></stop>
        <stop stop-color="#C51E8A" offset="60%"></stop>
        <stop stop-color="#AF2187" offset="76%"></stop>
        <stop stop-color="#952584" offset="89%"></stop>
      </radialGradient>
      <radialGradient cx="16.851%" cy="17.912%" fx="16.851%" fy="17.912%" r="71.896%" id="s">
        <stop stop-color="#EC178D" offset="0%"></stop>
        <stop stop-color="#CB1C8C" offset="24%"></stop>
        <stop stop-color="#772888" offset="77%"></stop>
        <stop stop-color="#512E87" offset="100%"></stop>
      </radialGradient>
      <radialGradient cx="19.492%" cy="16.608%" fx="19.492%" fy="16.608%" r="72.093%" id="t">
        <stop stop-color="#BA258E" offset="0%"></stop>
        <stop stop-color="#B5258D" offset="23%"></stop>
        <stop stop-color="#A5278B" offset="51%"></stop>
        <stop stop-color="#8B2987" offset="83%"></stop>
        <stop stop-color="#7A2A85" offset="100%"></stop>
      </radialGradient>
      <radialGradient cx="56.361%" cy="-43.498%" fx="56.361%" fy="-43.498%" r="66.716%" id="u">
        <stop stop-color="#E21A8D" offset="9%"></stop>
        <stop stop-color="#952584" offset="100%"></stop>
      </radialGradient>
      <radialGradient cx="57.477%" cy="-39.618%" fx="57.477%" fy="-39.618%" r="53.609%" id="v">
        <stop stop-color="#E21A8D" offset="9%"></stop>
        <stop stop-color="#952584" offset="100%"></stop>
      </radialGradient>
      <radialGradient cx="57.497%" cy="-37.216%" fx="57.497%" fy="-37.216%" r="52.329%" id="w">
        <stop stop-color="#E21A8D" offset="9%"></stop>
        <stop stop-color="#952584" offset="100%"></stop>
      </radialGradient>
      <radialGradient cx="49.165%" cy="11.762%" fx="49.165%" fy="11.762%" r="70.916%" id="x">
        <stop stop-color="#E21A8D" offset="0%"></stop>
        <stop stop-color="#DF1A8D" offset="25%"></stop>
        <stop stop-color="#D51C8C" offset="44%"></stop>
        <stop stop-color="#C51E8A" offset="60%"></stop>
        <stop stop-color="#AF2187" offset="76%"></stop>
        <stop stop-color="#952584" offset="89%"></stop>
      </radialGradient>
      <linearGradient x1="73.844%" y1="26.692%" x2="30.459%" y2="67.387%" id="a">
        <stop stop-color="#B1278F" offset="0%"></stop>
        <stop stop-color="#AF278E" offset="48%"></stop>
        <stop stop-color="#A8258A" offset="65%"></stop>
        <stop stop-color="#9E2383" offset="76%"></stop>
      </linearGradient>
      <linearGradient x1="111.459%" y1="16.589%" x2="-.073%" y2="76.323%" id="b">
        <stop stop-color="#EC178D" offset="0%"></stop>
        <stop stop-color="#EA178D" offset="47%"></stop>
        <stop stop-color="#E3188C" offset="64%"></stop>
        <stop stop-color="#D81A8A" offset="76%"></stop>
        <stop stop-color="#C71D88" offset="86%"></stop>
        <stop stop-color="#B12085" offset="95%"></stop>
        <stop stop-color="#9E2383" offset="100%"></stop>
      </linearGradient>
      <linearGradient x1="4.051%" y1="47.637%" x2="91.055%" y2="51.936%" id="i">
        <stop stop-color="#B1278F" offset="0%"></stop>
        <stop stop-color="#AF278E" offset="48%"></stop>
        <stop stop-color="#A8258A" offset="65%"></stop>
        <stop stop-color="#9E2383" offset="76%"></stop>
      </linearGradient>
      <linearGradient x1="3.187%" y1="44.801%" x2="95.474%" y2="53.595%" id="j">
        <stop stop-color="#EC178D" offset="0%"></stop>
        <stop stop-color="#EA178D" offset="47%"></stop>
        <stop stop-color="#E3188C" offset="64%"></stop>
        <stop stop-color="#D81A8A" offset="76%"></stop>
        <stop stop-color="#C71D88" offset="86%"></stop>
        <stop stop-color="#B12085" offset="95%"></stop>
        <stop stop-color="#9E2383" offset="100%"></stop>
      </linearGradient>
      <linearGradient x1="59.889%" y1="137.596%" x2="42.457%" y2="-75.966%" id="q">
        <stop stop-color="#B1278F" offset="0%"></stop>
        <stop stop-color="#AF278E" offset="48%"></stop>
        <stop stop-color="#A8258A" offset="65%"></stop>
        <stop stop-color="#9E2383" offset="76%"></stop>
      </linearGradient>
      <linearGradient x1="68.555%" y1="128.237%" x2="37.752%" y2="-32.567%" id="r">
        <stop stop-color="#EC178D" offset="0%"></stop>
        <stop stop-color="#EA178D" offset="47%"></stop>
        <stop stop-color="#E3188C" offset="64%"></stop>
        <stop stop-color="#D81A8A" offset="76%"></stop>
        <stop stop-color="#C71D88" offset="86%"></stop>
        <stop stop-color="#B12085" offset="95%"></stop>
        <stop stop-color="#9E2383" offset="100%"></stop>
      </linearGradient>
    </defs>
    <path d="M24.305 20.221c-1.793-.398-3.885-1.195-5.379-2.191 2.39 2.191 12.053 17.332 13.547 20.42.299-3.088-2.988-12.95-8.168-18.229z" fill="url(#a)" transform="translate(0 65.74)"></path>
    <path d="M33.967 55.384s3.088-14.245.996-23.509c-2.091-9.263-7.37-19.025-7.37-19.125 0 0 .497 4.881-1.196 5.479-1.693.597-6.873-3.487-6.873-3.487s7.271 7.87 10.26 14.743c2.59 5.877 3.287 9.363 2.191 16.635-1.096 7.271-1.295 7.072-1.295 7.072l3.287 2.192z" fill="url(#b)" transform="translate(0 65.74)"></path>
    <path d="M14.664 1.594a29.289 29.289 0 00-2.49 4.582c-3.487 6.574-6.475 13.348-8.866 20.42-13.447 42.634 15.739 126.406 57.874 125.211 4.782-.1 9.165 3.785 7.77 10.16-.498 2.391-.797 4.782-.996 7.272-.598 3.287.498 6.574 2.789 8.965 3.188 3.387 7.57 6.375 12.95 5.877 3.386-.299 4.482-1.096 7.37-3.188 2.391-1.693 4.284-3.884 6.675-5.677.199-.2.498-.3.697-.498-6.973-5.28-5.778-11.954-2.59-22.712-1.295-1.095-2.39-2.191-3.486-3.387-1.196-1.294-2.192-2.689-3.288-4.084-.896-1.095-2.091-2.091-2.888-3.187-2.192-3.188-2.092-7.67-2.092-11.555.1-4.084.797-8.268 0-12.252-.697-3.387-1.992-6.674-3.586-9.762a51.086 51.086 0 00-12.551-15.838c-5.28-4.483-10.559-8.965-15.739-13.647-4.183-3.785-7.77-7.371-10.06-12.65a72.797 72.797 0 01-3.885-11.057c-.797-2.989-1.295-6.076-2.291-8.965a42.08 42.08 0 00-2.989-6.475c-1.892-3.486-3.486-7.272-5.578-10.658-2.191-3.785-4.88-7.87-8.666-10.46 1.195-1.394 1.694-3.187 1.494-5.08-.1-1.295-.398-3.785-2.092-3.984.399-1.295.797-2.69.997-3.984.398-1.395 0-2.89-1.196-3.786-.996-.199-1.992-.299-2.988-.199 0 .2-.2.399-.299.598zm74.21 166.948c1.295 1.195 1.395 3.287.299 4.582-.896 1.494-2.79 1.892-4.283.996 0 0-.1 0-.1-.1-1.295-1.195-1.394-3.287-.299-4.582.897-1.494 2.79-1.892 4.284-.996 0 .1 0 .1.1.1z" fill="url(#c)" transform="translate(0 65.74)"></path>
    <path d="M99.412 174.32c3.984-1.694 8.267-1.196 12.152-.4 3.387.698 6.674 1.694 9.961 2.89 4.98-5.48.598-13.249-3.785-15.54-4.383-2.291-9.563-3.287-14.543-4.682-2.39-.697-4.582-2.49-6.475-3.984-3.088 10.559-4.183 16.735 2.69 21.715z" fill="url(#d)" transform="translate(0 65.74)"></path>
    <path d="M15.041 90.845c-.199-2.988 2.59-1.494 4.682 0-2.69-2.39-6.873-6.674-5.28-9.264 1.196-1.793 2.989-.996 4.483.2-1.992-2.391-3.984-5.678-2.988-8.069-3.387-2.889-6.873-5.08-8.766-4.283-1.793.797 1.295 5.28 5.28 9.861-2.79-2.29-5.38-3.685-6.675-2.39-1.992 2.091 3.985 9.164 9.264 14.642.1-.199 0-.398 0-.697z" fill="url(#e)" transform="translate(0 65.74)"></path>
    <path d="M8.567 60.065c-1.793 1.893 2.789 7.97 7.67 13.348.996-1.494 2.789-.299 4.482 1.295-2.59-3.387-5.379-7.77-3.387-9.064.1-.1.2-.1.399-.2-3.686-3.785-7.57-7.072-9.164-5.379z" fill="url(#f)" transform="translate(0 65.74)"></path>
    <path d="M16.934 99.511c-.299-1.394.1-1.892.797-2.092 1.195 0 2.39.3 3.387.997-1.694-.997-4.881-3.288-5.778-6.176-2.789-2.092-5.379-3.287-5.678-.598-.597 5.777 12.95 15.938 12.95 15.938l.1-.2c-3.288-3.785-5.579-6.773-5.778-7.869z" fill="url(#g)" transform="translate(0 65.74)"></path>
    <path d="M17.432 59.07c-.399 1.294 1.494 4.482 3.486 7.37-1.195-.996-2.49-1.494-3.685-.697-1.993 1.295.797 5.678 3.386 9.065-1.793-1.694-3.785-2.889-4.681-.897-.996 2.39.996 5.678 2.988 8.069-1.494-1.196-3.287-1.992-4.482-.2-1.594 2.49 2.49 6.874 5.279 9.264-2.092-1.494-4.781-3.088-4.682 0 .2 3.487 4.084 6.375 6.077 7.57-.997-.597-2.192-.995-3.387-.995-.698.1-1.096.697-.797 2.092.996 4.482 34.864 40.143 40.94 36.258 6.275-4.084.2-24.903-13.647-46.618-5.678-8.965-22.512-31.278-26.098-30.68-.398-.2-.597.1-.697.398z" fill="url(#h)" transform="translate(0 65.74)"></path>
    <path d="M13.946 162.864c.498 1.793.896 3.984.796 5.777.698-3.187 8.965-19.125 10.858-21.914-2.79 1.295-9.662 8.965-11.654 16.137z" fill="url(#i)" transform="translate(127.502 63.747)"></path>
    <path d="M39.546 136.865s-13.846 4.483-20.82 10.858c-6.972 6.375-12.849 15.938-12.849 15.938s3.984-2.889 5.28-1.694c1.294 1.196.398 7.67.398 7.67s3.187-10.16 7.67-16.236c3.785-5.18 6.475-7.57 13.348-10.26 6.873-2.69 6.773-2.49 6.773-2.49l.2-3.786z" fill="url(#j)" transform="translate(127.502 63.747)"></path>
    <path d="M2.59 180.495c1.793.1 3.486.1 5.28-.1 7.47-.199 14.841-1.095 22.113-2.59 43.63-9.761 101.603-76.8 79.49-112.76-2.49-4.083-1.296-9.86 4.88-11.853a79.821 79.821 0 006.774-2.69c3.088-1.195 5.478-3.685 6.375-6.872 1.295-4.483 1.693-9.762-1.395-14.145-1.992-2.79-3.187-3.387-6.474-4.881-2.69-1.195-5.479-1.793-8.168-2.889-.3-.1-.498-.199-.797-.398-1.096 8.666-7.471 10.957-18.329 13.646a41.926 41.926 0 01-1.195 4.782c-.598 1.693-1.195 3.287-1.893 4.88-.498 1.296-.797 2.79-1.394 4.085-1.594 3.486-5.578 5.678-8.965 7.57-3.586 1.992-7.57 3.487-10.659 6.076-2.59 2.291-4.78 4.981-6.673 7.97-3.686 5.677-6.176 12.152-7.471 18.826-1.295 6.873-2.49 13.646-3.985 20.42-1.195 5.479-2.59 10.46-5.877 15.041-2.29 3.188-4.88 6.076-7.57 8.866-2.192 2.191-4.582 4.183-6.674 6.474a46.544 46.544 0 00-4.084 5.778c-2.092 3.387-4.483 6.674-6.475 10.16-2.191 3.785-4.383 8.168-4.781 12.75-1.793-.299-3.686.1-5.08 1.295-.996.697-2.989 2.291-2.391 3.785-1.295.399-2.69.698-3.984 1.096-1.395.299-2.49 1.494-2.69 2.889.299.996.697 1.892 1.395 2.69.199.099.498.099.697.099zM110.07 32.772c.398-1.693 2.092-2.889 3.885-2.59 1.693.1 3.088 1.494 2.988 3.188v.1c-.398 1.693-2.092 2.888-3.885 2.59-1.693-.1-3.088-1.495-2.988-3.188v-.1z" fill="url(#k)" transform="translate(127.502 63.747)"></path>
    <path d="M109.771 20.72c-3.486-2.59-5.08-6.575-6.375-10.26-1.096-3.288-1.892-6.675-2.49-10.062-7.272-1.593-11.754 6.077-11.555 11.057.2 4.98 1.992 9.961 3.188 14.942.597 2.39.1 5.18-.2 7.57 10.659-2.59 16.536-4.781 17.432-13.248z" fill="url(#l)" transform="translate(127.502 63.747)"></path>
    <path d="M79.689 135.47c-2.59 1.694-2.59-1.493-2.39-4.083-.698 3.586-2.392 9.264-5.38 9.164-2.191-.1-2.39-1.992-2.092-3.984-1.095 2.888-2.888 6.375-5.478 6.574-.797 4.383-.996 8.566.697 9.662s3.984-3.785 5.877-9.563c-.598 3.586-.498 6.475 1.195 6.973 2.79.698 5.977-8.068 8.069-15.34-.1.399-.3.498-.498.598z" fill="url(#m)" transform="translate(127.502 63.747)"></path>
    <path d="M56.28 156.588c2.49.698 5.479-6.474 7.77-13.248-1.694-.1-1.694-2.291-1.096-4.482-1.594 3.984-3.984 8.566-6.176 7.47-.1-.1-.199-.1-.299-.199-1.593 4.98-2.39 9.862-.199 10.46z" fill="url(#n)" transform="translate(127.502 63.747)"></path>
    <path d="M86.263 129.594c-.996.996-1.693.896-2.191.398-.598-1.096-.897-2.191-.897-3.486 0 1.992-.398 5.877-2.39 8.068-.399 3.487-.2 6.375 2.29 5.28 5.28-2.391 7.372-19.225 7.372-19.225h-.2c-1.693 4.781-3.187 8.168-3.984 8.965z" fill="url(#o)" transform="translate(127.502 63.747)"></path>
    <path d="M50.901 149.416c1.295-.298 3.088-3.586 4.582-6.773-.299 1.494 0 2.889 1.196 3.486 2.191 1.096 4.582-3.486 6.175-7.47-.597 2.39-.597 4.78 1.594 4.482 2.59-.299 4.383-3.686 5.479-6.574-.299 1.892-.1 3.884 2.092 3.984 2.988.1 4.681-5.578 5.379-9.164-.3 2.59-.2 5.678 2.39 4.084 2.989-1.893 3.487-6.674 3.487-8.965 0 1.195.299 2.39.896 3.486.498.498 1.096.598 2.192-.398 3.386-3.088 17.332-50.304 10.957-53.59-6.674-3.388-21.616 12.35-33.569 35.162-4.881 9.463-15.838 35.162-13.547 37.952.1.199.398.398.697.298z" fill="url(#p)" transform="translate(127.502 63.747)"></path>
    <path d="M184.38 55.981c1.295-1.295 2.988-2.789 4.582-3.586-3.088.996-21.018 1.793-24.405 1.594 2.49 1.793 12.65 3.885 19.823 1.992z" fill="url(#q)" transform="translate(21.914 -1)"></path>
    <path d="M149.018 46.817s10.857 9.762 19.822 12.65c9.065 2.89 20.221 3.188 20.221 3.188s-4.482-2.092-4.183-3.785c.299-1.693 6.475-4.184 6.475-4.184s-10.46 2.391-17.83 1.495c-6.376-.698-9.763-1.893-15.54-6.475-5.778-4.582-5.578-4.682-5.578-4.682l-3.387 1.793z" fill="url(#r)" transform="translate(21.914 -1)"></path>
    <path d="M205.298 56.977c-.797-1.593-1.693-3.088-2.79-4.482-3.884-6.375-8.366-12.352-13.247-17.83C159.079 1.693 71.919-15.041 51.897 22.114c-2.29 4.283-7.869 6.076-12.65 1.693-1.793-1.594-3.786-3.088-5.778-4.482-2.59-2.092-5.976-2.89-9.164-2.092-4.582 1.095-9.264 3.386-11.555 8.267-1.494 3.088-1.295 4.483-.996 7.97.299 2.888 1.195 5.677 1.594 8.566v.896c8.068-3.386 13.248.996 21.018 9.065 1.494-.598 3.088-.996 4.681-1.295 1.694-.398 3.487-.598 5.18-.897 1.395-.199 2.79-.697 4.184-.896 3.785-.299 7.77 1.992 11.057 3.984 3.486 2.092 6.773 4.782 10.658 6.077a35.797 35.797 0 0010.26 1.793c6.774.298 13.647-.698 20.022-2.989 6.574-2.29 13.049-4.681 19.723-6.773 5.379-1.694 10.26-2.989 15.937-2.39 3.885.398 7.77 1.194 11.555 2.19 2.989.797 5.877 1.893 8.866 2.49 2.29.4 4.681.698 7.072.698 3.985.1 7.969.598 12.053.598 4.383 0 9.264-.3 13.447-2.291a6.287 6.287 0 003.686 3.785c1.096.498 3.486 1.494 4.483.1.996.996 1.892 1.992 2.888 2.888.996 1.096 2.59 1.395 3.885.897.697-.698 1.295-1.594 1.594-2.49-.1-.1-.2-.3-.299-.499zM23.708 37.753c-1.694.498-3.487-.399-4.184-2.092-.797-1.494-.2-3.387 1.295-4.184 0 0 .1 0 .1-.1 1.693-.498 3.486.399 4.183 2.092.797 1.494.2 3.387-1.295 4.184-.1 0-.1.1-.1.1z" fill="url(#s)" transform="translate(21.914 -1)"></path>
    <path d="M13.348 44.028c-.598 4.283-3.088 7.67-5.678 10.658A63.564 63.564 0 01.2 61.858c2.29 7.073 11.156 7.073 15.34 4.483 4.183-2.59 7.67-6.674 11.355-10.16 1.793-1.694 4.482-2.69 6.674-3.686-7.67-7.87-12.451-11.854-20.221-8.467z" fill="url(#t)" transform="translate(21.914 -1)"></path>
    <path d="M127.8 12.75c2.69 1.395 0 2.989-2.39 4.084 3.486-1.195 9.264-2.59 10.658.1.997 1.892-.597 3.088-2.39 3.785 2.988-.498 6.973-.598 8.467 1.395 4.183-1.495 7.869-3.387 8.068-5.38.2-1.992-5.18-1.593-11.256-.298 3.387-1.295 5.877-2.889 5.38-4.582-.798-2.79-9.962-1.096-17.333.697.398-.1.598 0 .797.2z" fill="url(#u)" transform="translate(21.914 -1)"></path>
    <path d="M157.784 22.412c-.698-2.49-8.368-1.494-15.34-.1.796 1.595-1.096 2.59-3.387 3.288 4.183-.598 9.363-.797 9.463 1.594v.398c5.18-1.195 9.861-2.888 9.264-5.18z" fill="url(#v)" transform="translate(21.914 -1)"></path>
    <path d="M119.433 9.961c1.395.399 1.594.996 1.395 1.693a6.92 6.92 0 01-2.59 2.49c1.793-.995 5.28-2.59 8.268-1.892 3.187-1.394 5.578-3.088 3.387-4.582-4.782-3.486-20.321 3.188-20.321 3.188l.1.199c4.98-.897 8.666-1.395 9.761-1.096z" fill="url(#w)" transform="translate(21.914 -1)"></path>
    <path d="M154.198 30.68c-.897-.996-4.682-.896-8.168-.598 1.394-.498 2.49-1.394 2.49-2.789-.1-2.39-5.28-2.191-9.463-1.593 2.39-.698 4.482-1.893 3.187-3.586-1.494-2.092-5.379-1.893-8.467-1.395 1.793-.697 3.387-1.893 2.391-3.785-1.394-2.69-7.172-1.195-10.658-.1 2.39-.996 5.08-2.69 2.39-4.084-3.187-1.594-7.47.299-9.562 1.494 1.095-.597 1.892-1.394 2.59-2.49.199-.697-.1-1.295-1.395-1.693-4.383-1.395-52.196 10.16-51.798 17.332.399 7.47 21.516 12.551 47.216 11.455 10.658-.498 38.35-3.785 39.645-7.271-.1-.399-.2-.698-.398-.897z" fill="url(#x)" transform="translate(21.914 -1)"></path>
  </symbol>
  <symbol xmlns="http://www.w3.org/2000/svg" viewBox="0 0 512 512" id="sass">
    <path d="M512 256c0 7.91-.355 15.726-1.066 23.448a245.065 245.065 0 01-2.299 18.119C488.782 419.182 383.227 512 256 512c-64.805 0-123.977-24.074-169.075-63.781a256.87 256.87 0 01-43.802-49.977C15.882 357.564 0 308.632 0 256 0 114.615 114.615 0 256 0s256 114.615 256 256z" fill="#f2f2f2"></path>
    <path d="M446.767 284.975c-7.764 2.936-7.45 2.988-11.557-4.493-5.245-9.529-8.035-19.55-8.276-30.448-.199-9.352 2.361-18.045 5.58-26.572 2.57-6.781-.773-9.174-6.646-9.791-4.274-.439-8.683-.397-12.967.042-11.139 1.139-12.236 2.1-15.193 12.915-1.755 6.416-3.156 12.884-6.071 18.975-7.189 14.994-15.36 29.435-23.74 43.771-1.505 2.581-2.748 5.36-4.869 7.565-6.071-9.091-8.359-19.132-8.871-29.665-.512-10.397 2.675-20.062 6.175-29.623 1.181-3.218.199-5.214-2.581-6.604-1.233-.616-2.612-1.191-3.96-1.296-7.147-.564-14.273-.481-21.243 1.473-3.135.867-5.183 2.623-5.883 6.144a93.771 93.771 0 01-6.343 20.01c-7.941 17.826-15.83 35.683-23.761 53.52-6.896 15.496-13.688 31.033-21.859 45.913-.575 1.055-1.055 2.884-2.497 2.518-1.463-.366-.951-2.163-1.014-3.396-.47-8.777 1.923-17.147 3.96-25.527 3.229-13.26 6.76-26.457 10.188-39.675.982-3.793-.669-6.343-3.814-8.161-4.524-2.602-9.028-2.727-13.928.919.669-5.392.961-10.125.731-14.858-.522-10.553-5.413-17.418-13.928-19.007-6.217-1.16-12.1.648-17.659 3.281-12.957 6.134-23.374 15.381-32.131 26.603-1.024 1.306-2.058 2.508-3.542 3.312-16.436 8.955-32.862 17.91-49.256 26.948-1.797 1.003-2.957.721-4.253-.669-8.255-8.85-17.836-16.154-27.324-23.562-13.26-10.365-26.979-20.187-38.421-32.684-6.687-7.314-12.267-15.329-15.057-25.004-4.556-15.82-1.149-30.553 6.437-44.554 8.976-16.562 22.288-29.351 36.968-40.741 23.312-18.077 48.88-32.434 75.828-44.251 30.177-13.218 61.482-21.734 94.824-20.449 13.208.512 26.028 2.8 37.794 9.268 8.328 4.577 13.845 11.191 15.402 20.898 1.829 11.368-.899 21.87-5.945 31.828-11.274 22.246-29.194 38.003-50.375 50.343-17.638 10.271-36.665 16.792-56.801 20.208-11.128 1.891-22.298 3.03-33.489 1.327-12.842-1.954-24.712-6.248-33.499-16.593-1.014-1.191-2.299-2.017-4.023-1.181-1.766.857-1.63 2.424-1.463 3.929.125 1.034.408 2.079.773 3.062 2.351 6.343 6.75 11.128 11.901 15.308 13.396 10.898 29.268 14.096 45.934 14.42 16.311.324 32.371-1.745 48.264-5.548 35.85-8.568 65.881-26.154 87.803-56.289 13.103-18.014 21.4-37.867 20.668-60.583-.47-14.409-5.319-27.136-15.82-37.48-12.487-12.278-27.982-18.453-44.607-22.162-18.516-4.117-37.219-4.702-56.111-2.445-16.436 1.964-32.496 5.329-48.128 10.71-23.918 8.244-47.02 18.369-69.13 30.678-22.653 12.601-44.001 27.032-62.725 45.108-16.572 15.997-30.814 33.646-38.839 55.557-3.427 9.383-5.893 19.028-3.594 29.174 2.947 13.061 9.383 24.367 17.847 34.565 12.8 15.444 28.505 27.606 44.701 39.225 13.009 9.341 26.624 17.847 39.121 27.888 3.542 2.842 3.521 2.842-.648 5.026-4.869 2.539-9.791 4.984-14.576 7.69-19.298 10.91-37.949 22.738-53.174 39.175-7.492 8.098-12.581 17.189-14.952 27.282a256.811 256.811 0 0043.802 49.977c28.432-2.215 50.197-17.011 66.278-41.482 7.764-11.818 11.4-25.192 12.769-39.299 1.202-12.434-.063-24.472-3.72-36.342-.637-2.09-3.009-4.169-2.079-6.008.867-1.693 3.48-2.55 5.402-3.657 7.753-4.504 15.527-8.944 23.51-13.531.345 1.714-.324 2.717-.616 3.803-4.577 16.792-7.764 33.719-4.284 51.169 2.163 10.867 5.768 21.096 12.622 30.093 7.053 9.258 22.8 8.202 29.194-.251 6.071-8.025 10.094-17.074 14.284-26.081 2.299-4.932 4.409-9.947 6.604-14.932-.408 5.998-.387 11.849-.167 17.68.219 5.747 1.139 11.421 4.127 16.499 3.594 6.102 10.355 7.879 16.635 4.618 6.625-3.438 11.139-9.101 14.649-15.245 15.057-26.425 29.027-53.415 40.594-81.596 2.466-5.987 4.995-11.964 7.785-18.62.428 2.184.711 3.521.972 4.859 2.57 13.427 7.147 26.133 13.772 38.076 1.421 2.56 1.264 4.326-.533 6.781-6.102 8.307-12.79 16.123-19.383 24.022-5.538 6.646-11.463 12.999-16.144 20.313-4.2 6.583-1.787 13.322 5.204 14.817 2.152.46 4.42.596 6.625.564 12.215-.146 23.489-3.793 33.991-9.77 14.137-8.056 22.518-19.864 22.131-36.676-.178-7.649-2.247-14.994-5.329-22.006-.679-1.557-.711-2.685.303-4.148 9.791-14.023 18.442-28.724 26.394-43.854 1.411-2.664 2.403-5.622 4.681-8.223.303 1.055.543 1.714.679 2.393 2.529 12.539 5.935 24.795 12.33 35.986 1.755 3.062.878 4.618-1.546 6.666-8.349 7.095-15.391 15.37-20.919 24.848-4.305 7.377-7.252 15.255-7.22 23.897.031 9.613 7.387 15.276 16.76 13.019 9.77-2.341 18.829-6.322 26.958-12.267 17.711-12.967 22.904-26.645 17.356-45.735-2.173-7.513-2.132-7.387 5.402-9.665 16.478-4.974 33.196-5.183 49.998-2.445 1.902.313 3.783.669 5.642 1.076a245.533 245.533 0 002.299-18.119c-21.494-5.254-42.957-2.527-64.168 5.529zM98.586 419.401c-4.775 1.693-9.738 2.414-14.817 2.017-6.322-.502-10.334-4.963-10.742-11.672-.46-7.732 1.829-14.712 5.214-21.504 6.154-12.33 16.488-20.699 27.032-28.912 10.25-7.993 21.264-14.817 32.402-21.452 3.375-2.006 3.427-1.985 4.2 2.038 1.003 5.162 1.902 10.334 1.567 15.026.879 28.138-19.559 55.504-44.856 64.459zm153.37-141.887c-1.776 11.86-5.653 23.155-9.78 34.314-5.622 15.235-11.097 30.542-18.171 45.192-1.62 3.375-3.323 6.729-5.945 9.477-2.476 2.602-4.671 2.299-6.384-.878-3.344-6.207-2.926-13.113-3.469-18.129.157-25.161 8.6-45.725 22.507-64.209 3.887-5.151 8.85-9.341 15.423-11.024 4.461-1.137 6.519.66 5.819 5.257zm97.385 74.491c-4.765 8.234-11.63 14.221-20.052 18.484-.899.449-2.058 1.243-2.873.188-.773-.993.47-1.651 1.034-2.278 8.37-9.143 16.635-18.359 24.085-28.275.115-.157.397-.178 1.034-.449-.073 4.588-1.076 8.621-3.228 12.33zm57.793-.355c-1.243.585-2.685 1.682-3.897.742-1.337-1.034-.805-2.863-.397-4.263 1.902-6.384 4.462-12.497 7.993-18.192 2.967-4.796 6.646-8.986 10.689-12.894 1.63-1.567 2.361-1.379 2.915.878.575 2.309.627 4.618.669 6.969-.104 12.863-6.635 21.421-17.972 26.76z" fill="#cd6699"></path>
  </symbol>
  <symbol xmlns="http://www.w3.org/2000/svg" preserveAspectRatio="xMidYMid" viewBox="0 0 256 256" id="typescript">
    <path fill="#007ACC" d="M0 128v128h256V0H0z"></path>
    <path d="M56.611 128.85l-.081 10.483h33.32v94.68h23.57v-94.68h33.32v-10.28c0-5.69-.122-10.444-.284-10.566-.122-.162-20.399-.244-44.983-.203l-44.739.122-.122 10.443zm149.956-10.742c6.501 1.626 11.459 4.51 16.01 9.224 2.357 2.52 5.851 7.112 6.136 8.209.08.325-11.053 7.802-17.798 11.987-.244.163-1.22-.894-2.317-2.52-3.291-4.794-6.745-6.867-12.028-7.232-7.76-.529-12.759 3.535-12.718 10.32 0 1.992.284 3.17 1.097 4.796 1.707 3.535 4.876 5.648 14.832 9.955 18.326 7.884 26.168 13.085 31.045 20.48 5.445 8.25 6.664 21.415 2.966 31.208-4.063 10.646-14.14 17.88-28.323 20.277-4.388.772-14.79.65-19.504-.203-10.28-1.829-20.033-6.908-26.047-13.572-2.357-2.601-6.949-9.387-6.664-9.875.122-.162 1.178-.812 2.356-1.503 1.138-.65 5.446-3.13 9.509-5.486l7.355-4.267 1.544 2.276c2.154 3.291 6.867 7.802 9.712 9.305 8.167 4.308 19.383 3.698 24.909-1.26 2.357-2.153 3.332-4.388 3.332-7.68 0-2.966-.366-4.266-1.91-6.5-1.99-2.845-6.054-5.243-17.595-10.24-13.206-5.69-18.895-9.225-24.096-14.833-3.007-3.25-5.852-8.452-7.03-12.8-.975-3.616-1.22-12.678-.447-16.335 2.723-12.76 12.353-21.658 26.25-24.3 4.51-.853 14.994-.528 19.424.57z" fill="#FFF"></path>
  </symbol>
</svg>