<?xml version="1.0" encoding="iso-8859-1"?>
<!-- Generator: Adobe Illustrator 19.0.0, SVG Export Plug-In . SVG Version: 6.00 Build 0)  -->
<svg version="1.1" id="Capa_1" xmlns="http://www.w3.org/2000/svg" xmlns:xlink="http://www.w3.org/1999/xlink" x="0px" y="0px"
	 viewBox="0 0 511.652 511.652" style="enable-background:new 0 0 511.652 511.652;" xml:space="preserve">
<g>
	<path style="fill:#5C9EFF;" d="M227.846,355.211h55.961v-55.805v-1.516h23.984c85.066-5.121,141.824-22.062,172.523-34.055
		l19.908-8.623v195.934c0,17.589-14.396,31.978-31.979,31.978H44.534c-17.59,0-31.979-14.389-31.979-31.978V256.504l6.796,2.374
		c26.221,11.594,86.738,33.094,184.511,39.012h23.984v1.516V355.211z"/>
	<path style="fill:#5C9EFF;" d="M283.807,275.264h-55.961v22.625h-23.984c-97.773-5.918-158.291-27.418-184.511-39.012
		c-10.313-4.56-15.353-7.597-15.353-7.597V139.357c0-21.985,17.987-39.973,39.973-39.973h423.711
		c21.984,0,39.973,17.987,39.973,39.973v111.924c0,0-8.947,5.438-27.34,12.554c-30.699,11.992-87.457,28.934-172.523,34.055h-23.985
		V275.264z"/>
</g>
<g>
	<path style="fill:#2287FF;" d="M283.807,313.879h23.984c85.066-5.121,141.824-22.062,172.523-34.055
		c8.799-3.403,15.379-6.401,19.908-8.635v-15.978l-0.125,0.055c-4.529,2.218-11.055,5.191-19.783,8.568
		c-30.699,11.992-87.457,28.934-172.523,34.055h-23.984v1.516V313.879z"/>
	<path style="fill:#2287FF;" d="M12.555,271.737c1.932,0.929,4.196,1.982,6.796,3.13c26.221,11.594,86.738,33.096,184.511,39.013
		h23.984v-14.474v-1.516h-23.984c-97.773-5.918-158.291-27.418-184.511-39.012l-6.796-2.374
		C12.555,256.504,12.555,271.737,12.555,271.737z"/>
</g>
<g>
	<path style="fill:#94C1FF;" d="M19.988,247.831V135.908c0-21.985,17.987-39.973,39.973-39.973h-15.99
		c-21.985,0-39.973,17.988-39.973,39.973v111.924c0,0,5.04,3.037,15.353,7.596L19.988,247.831z"/>
	<path style="fill:#94C1FF;" d="M28.544,447.694v-172.43c-3.393-1.358-6.52-2.67-9.193-3.849c-2.6-1.147-4.864-2.202-6.796-3.131
		v179.409c0,17.59,14.389,31.979,31.979,31.979h15.989C42.933,479.673,28.544,465.285,28.544,447.694z"/>
</g>
<g>
	<path style="fill:#2287FF;" d="M493.665,247.831V135.908c0-21.985-17.988-39.973-39.973-39.973h15.988
		c21.986,0,39.973,17.988,39.973,39.973v111.924c0,0-5.043,3.037-15.348,7.596L493.665,247.831z"/>
	<path style="fill:#2287FF;" d="M485.108,447.694v-172.43c3.389-1.358,6.52-2.67,9.197-3.849c2.592-1.147,4.855-2.202,6.791-3.131
		v179.409c0,17.59-14.389,31.979-31.977,31.979h-15.99C470.72,479.673,485.108,465.285,485.108,447.694z"/>
</g>
<path style="fill:#94C1FF;" d="M331.759,67.407H179.867V51.418c0,0,15.544-15.989,75.948-15.989
	c60.409,0,75.944,15.989,75.944,15.989V67.407z"/>
<path style="fill:#5C9EFF;" d="M255.815,31.978c-60.404,0-75.948,15.989-75.948,15.989v7.994c0,0,15.544-15.989,75.948-15.989
	c60.409,0,75.944,15.989,75.944,15.989v-7.994C331.759,47.968,316.223,31.978,255.815,31.978z"/>
<g>
	<path style="fill:#116FFF;" d="M454.278,467.681h-15.99c-2.209,0-3.996-1.788-3.996-3.997c0-2.21,1.787-3.997,3.996-3.997h15.99
		c2.209,0,3.996,1.787,3.996,3.997C458.274,465.892,456.487,467.681,454.278,467.681z M422.3,467.681h-15.988
		c-2.211,0-3.998-1.788-3.998-3.997c0-2.21,1.787-3.997,3.998-3.997H422.3c2.209,0,3.998,1.787,3.998,3.997
		C426.298,465.892,424.509,467.681,422.3,467.681z M390.321,467.681h-15.988c-2.211,0-3.998-1.788-3.998-3.997
		c0-2.21,1.787-3.997,3.998-3.997h15.988c2.209,0,3.998,1.787,3.998,3.997C394.319,465.892,392.53,467.681,390.321,467.681z
		 M358.343,467.681h-15.988c-2.209,0-3.998-1.788-3.998-3.997c0-2.21,1.789-3.997,3.998-3.997h15.988
		c2.209,0,3.998,1.787,3.998,3.997C362.341,465.892,360.552,467.681,358.343,467.681z M326.364,467.681h-15.988
		c-2.209,0-3.998-1.788-3.998-3.997c0-2.21,1.789-3.997,3.998-3.997h15.988c2.211,0,3.998,1.787,3.998,3.997
		C330.362,465.892,328.575,467.681,326.364,467.681z M294.388,467.681h-15.99c-2.209,0-3.998-1.788-3.998-3.997
		c0-2.21,1.789-3.997,3.998-3.997h15.99c2.209,0,3.996,1.787,3.996,3.997C298.384,465.892,296.597,467.681,294.388,467.681z
		 M262.409,467.681h-15.99c-2.209,0-3.997-1.788-3.997-3.997c0-2.21,1.788-3.997,3.997-3.997h15.99c2.209,0,3.996,1.787,3.996,3.997
		C266.405,465.892,264.618,467.681,262.409,467.681z M230.43,467.681h-15.989c-2.209,0-3.997-1.788-3.997-3.997
		c0-2.21,1.788-3.997,3.997-3.997h15.989c2.209,0,3.997,1.787,3.997,3.997C234.427,465.892,232.639,467.681,230.43,467.681z
		 M198.452,467.681h-15.989c-2.209,0-3.998-1.788-3.998-3.997c0-2.21,1.788-3.997,3.998-3.997h15.989
		c2.21,0,3.998,1.787,3.998,3.997C202.449,465.892,200.661,467.681,198.452,467.681z M166.473,467.681h-15.989
		c-2.21,0-3.998-1.788-3.998-3.997c0-2.21,1.788-3.997,3.998-3.997h15.989c2.209,0,3.998,1.787,3.998,3.997
		C170.471,465.892,168.683,467.681,166.473,467.681z M134.495,467.681h-15.989c-2.209,0-3.997-1.788-3.997-3.997
		c0-2.21,1.788-3.997,3.997-3.997h15.989c2.209,0,3.997,1.787,3.997,3.997C138.493,465.892,136.704,467.681,134.495,467.681z
		 M102.517,467.681H86.528c-2.209,0-3.997-1.788-3.997-3.997c0-2.21,1.788-3.997,3.997-3.997h15.989c2.21,0,3.998,1.787,3.998,3.997
		C106.515,465.892,104.727,467.681,102.517,467.681z M70.539,467.681H54.55c-2.21,0-3.998-1.788-3.998-3.997
		c0-2.21,1.788-3.997,3.998-3.997h15.989c2.209,0,3.998,1.787,3.998,3.997C74.536,465.892,72.748,467.681,70.539,467.681z
		 M469.977,465.604c-1.529,0-2.99-0.883-3.652-2.366c-0.906-2.015,0-4.38,2.014-5.285c4.059-1.827,7.463-5.005,9.557-8.955
		c1.037-1.96,3.465-2.686,5.402-1.663c1.951,1.039,2.701,3.459,1.662,5.41c-2.928,5.521-7.674,9.955-13.357,12.5
		C471.071,465.487,470.524,465.604,469.977,465.604z M39.345,463.73c-0.753,0-1.519-0.219-2.197-0.664
		c-5.223-3.442-9.193-8.596-11.18-14.497c-0.703-2.093,0.421-4.357,2.518-5.06c2.088-0.687,4.356,0.43,5.062,2.514
		c1.417,4.216,4.259,7.901,8.003,10.368c1.842,1.218,2.35,3.701,1.136,5.543C41.918,463.091,40.645,463.73,39.345,463.73z
		 M484.202,439.341c-2.201,0-3.996-1.796-3.996-3.997v-15.989c0-2.218,1.795-3.998,3.996-3.998c2.219,0,3.998,1.78,3.998,3.998
		v15.989C488.2,437.546,486.421,439.341,484.202,439.341z M28.517,435.444c-2.21,0-3.998-1.787-3.998-3.997v-15.989
		c0-2.209,1.788-3.997,3.998-3.997c2.209,0,3.997,1.788,3.997,3.997v15.989C32.514,433.658,30.726,435.444,28.517,435.444z
		 M484.202,407.362c-2.201,0-3.996-1.795-3.996-3.997v-15.989c0-2.217,1.795-3.997,3.996-3.997c2.219,0,3.998,1.78,3.998,3.997
		v15.989C488.2,405.568,486.421,407.362,484.202,407.362z M28.517,403.467c-2.21,0-3.998-1.788-3.998-3.997v-15.989
		c0-2.21,1.788-3.997,3.998-3.997c2.209,0,3.997,1.787,3.997,3.997v15.989C32.514,401.68,30.726,403.467,28.517,403.467z
		 M484.202,375.384c-2.201,0-3.996-1.795-3.996-3.997v-15.989c0-2.217,1.795-3.997,3.996-3.997c2.219,0,3.998,1.78,3.998,3.997
		v15.989C488.2,373.59,486.421,375.384,484.202,375.384z M28.517,371.488c-2.21,0-3.998-1.788-3.998-3.997v-15.989
		c0-2.209,1.788-3.997,3.998-3.997c2.209,0,3.997,1.788,3.997,3.997v15.989C32.514,369.701,30.726,371.488,28.517,371.488z
		 M484.202,343.406c-2.201,0-3.996-1.796-3.996-3.997V323.42c0-2.218,1.795-3.997,3.996-3.997c2.219,0,3.998,1.779,3.998,3.997
		v15.989C488.2,341.611,486.421,343.406,484.202,343.406z M28.517,339.512c-2.21,0-3.998-1.788-3.998-3.998v-15.988
		c0-2.21,1.788-3.998,3.998-3.998c2.209,0,3.997,1.788,3.997,3.998v15.988C32.514,337.723,30.726,339.512,28.517,339.512z
		 M484.202,311.428c-2.201,0-3.996-1.796-3.996-3.997v-15.989c0-2.218,1.795-3.997,3.996-3.997c2.219,0,3.998,1.779,3.998,3.997
		v15.989C488.2,309.633,486.421,311.428,484.202,311.428z M28.517,307.533c-2.21,0-3.998-1.788-3.998-3.998v-15.988
		c0-2.21,1.788-3.998,3.998-3.998c2.209,0,3.997,1.788,3.997,3.998v15.988C32.514,305.745,30.726,307.533,28.517,307.533z"/>
	<path style="fill:#116FFF;" d="M19.976,235.84c-2.21,0-3.998-1.788-3.998-3.998v-7.995c0-2.209,1.788-3.997,3.998-3.997
		c2.209,0,3.997,1.788,3.997,3.997v7.995C23.973,234.051,22.185,235.84,19.976,235.84z"/>
	<path style="fill:#116FFF;" d="M19.976,210.255c-2.21,0-3.998-1.788-3.998-3.998v-17.589c0-2.21,1.788-3.998,3.998-3.998
		c2.209,0,3.997,1.788,3.997,3.998v17.589C23.973,208.467,22.185,210.255,19.976,210.255z M19.976,175.079
		c-2.21,0-3.998-1.788-3.998-3.997v-17.59c0-2.209,1.788-3.997,3.998-3.997c2.209,0,3.997,1.788,3.997,3.997v17.59
		C23.973,173.292,22.185,175.079,19.976,175.079z"/>
	<path style="fill:#116FFF;" d="M19.976,139.904c-2.21,0-3.998-1.788-3.998-3.998v-7.995c0-2.209,1.788-3.997,3.998-3.997
		c2.209,0,3.997,1.788,3.997,3.997v7.995C23.973,138.117,22.185,139.904,19.976,139.904z"/>
	<path style="fill:#116FFF;" d="M491.651,235.84c-2.201,0-3.998-1.788-3.998-3.998v-15.989c0-2.21,1.797-3.998,3.998-3.998
		c2.217,0,3.996,1.788,3.996,3.998v15.989C495.647,234.051,493.868,235.84,491.651,235.84z M491.651,203.861
		c-2.201,0-3.998-1.788-3.998-3.997v-15.989c0-2.209,1.797-3.997,3.998-3.997c2.217,0,3.996,1.788,3.996,3.997v15.989
		C495.647,202.072,493.868,203.861,491.651,203.861z M491.651,171.883c-2.201,0-3.998-1.788-3.998-3.997v-15.99
		c0-2.209,1.797-3.997,3.998-3.997c2.217,0,3.996,1.788,3.996,3.997v15.989C495.647,170.094,493.868,171.883,491.651,171.883z
		 M491.651,139.904c-2.201,0-3.998-1.788-3.998-3.998v-7.995c0-2.209,1.797-3.997,3.998-3.997c2.217,0,3.996,1.788,3.996,3.997
		v7.995C495.647,138.117,493.868,139.904,491.651,139.904z"/>
	<path style="fill:#116FFF;" d="M275.798,451.691c-2.201,0-3.998-1.788-3.998-3.997v-15.989c0-2.209,1.797-3.997,3.998-3.997
		c2.217,0,3.998,1.788,3.998,3.997v15.989C279.796,449.904,278.015,451.691,275.798,451.691z M275.798,419.715
		c-2.201,0-3.998-1.788-3.998-3.998v-15.988c0-2.21,1.797-3.998,3.998-3.998c2.217,0,3.998,1.788,3.998,3.998v15.988
		C279.796,417.927,278.015,419.715,275.798,419.715z M275.798,387.736c-2.201,0-3.998-1.788-3.998-3.998V367.75
		c0-2.21,1.797-3.998,3.998-3.998c2.217,0,3.998,1.788,3.998,3.998v15.988C279.796,385.948,278.015,387.736,275.798,387.736z"/>
	<path style="fill:#116FFF;" d="M235.828,451.691c-2.209,0-3.997-1.788-3.997-3.997v-15.989c0-2.209,1.788-3.997,3.997-3.997
		c2.21,0,3.998,1.788,3.998,3.997v15.989C239.826,449.904,238.038,451.691,235.828,451.691z M235.828,419.715
		c-2.209,0-3.997-1.788-3.997-3.998v-15.988c0-2.21,1.788-3.998,3.997-3.998c2.21,0,3.998,1.788,3.998,3.998v15.988
		C239.826,417.927,238.038,419.715,235.828,419.715z M235.828,387.736c-2.209,0-3.997-1.788-3.997-3.998V367.75
		c0-2.21,1.788-3.998,3.997-3.998c2.21,0,3.998,1.788,3.998,3.998v15.988C239.826,385.948,238.038,387.736,235.828,387.736z"/>
</g>
<path style="fill:#5C9EFF;" d="M255.827,311.788c4.399,0,7.995,3.599,7.995,7.994s-3.596,7.995-7.995,7.995
	c-4.395,0-7.994-3.6-7.994-7.995S251.431,311.788,255.827,311.788z"/>
<g>
	<polygon style="fill:#D7E9FF;" points="227.846,271.815 283.807,271.815 283.807,294.44 283.807,295.954 227.846,295.954 
		227.846,294.44 	"/>
	<path style="fill:#D7E9FF;" d="M283.807,351.76h-55.961v-55.806h55.961V351.76z M255.827,327.776c4.399,0,7.995-3.6,7.995-7.995
		s-3.596-7.994-7.995-7.994c-4.395,0-7.994,3.599-7.994,7.994S251.431,327.776,255.827,327.776z"/>
</g>
<path style="fill:#94C1FF;" d="M255.827,231.842c-15.454,0-27.98,12.527-27.98,27.981v11.992h55.961v-11.992
	C283.807,244.368,271.286,231.842,255.827,231.842z"/>
<path style="fill:#D7E9FF;" d="M259.825,232.243c-1.316-0.187-2.629-0.402-3.999-0.402c-15.454,0-27.98,12.527-27.98,27.981v11.992
	h7.994v-11.992C235.84,245.738,246.279,234.199,259.825,232.243z"/>
<path style="fill:#5C9EFF;" d="M251.829,232.243c1.315-0.187,2.627-0.402,3.997-0.402c15.459,0,27.981,12.527,27.981,27.981v11.992
	h-7.994v-11.992C275.813,245.738,265.376,234.199,251.829,232.243z"/>
<g>
	<rect x="227.847" y="271.815" style="fill:#FFFFFF;" width="7.982" height="24.14"/>
	<rect x="227.847" y="295.956" style="fill:#FFFFFF;" width="7.982" height="55.962"/>
</g>
<g>
	<rect x="275.797" y="271.815" style="fill:#94C1FF;" width="7.986" height="24.14"/>
	<rect x="275.797" y="295.956" style="fill:#94C1FF;" width="7.986" height="55.962"/>
</g>
<g>
	<path style="fill:#116FFF;" d="M468.245,483.671H44.534c-19.838,0-35.976-16.138-35.976-35.976v-175.88
		c0-2.21,1.788-3.997,3.997-3.997s3.997,1.787,3.997,3.997v175.88c0,15.427,12.554,27.98,27.981,27.98h423.711
		c15.428,0,27.98-12.554,27.98-27.98v-175.88c0-2.21,1.789-3.997,3.998-3.997s3.996,1.787,3.996,3.997v175.88
		C504.22,467.533,488.083,483.671,468.245,483.671z"/>
	<path style="fill:#116FFF;" d="M283.807,355.758h-55.961c-2.21,0-3.998-1.787-3.998-3.997v-79.945c0-2.21,1.788-3.997,3.998-3.997
		h55.961c2.209,0,3.998,1.787,3.998,3.997v79.945C287.806,353.97,286.016,355.758,283.807,355.758z M231.843,347.763h47.968v-71.951
		h-47.968V347.763z"/>
	<path style="fill:#116FFF;" d="M255.827,331.773c-6.612,0-11.991-5.38-11.991-11.992s5.379-11.991,11.991-11.991
		c6.614,0,11.993,5.379,11.993,11.991S262.44,331.773,255.827,331.773z M255.827,315.785c-2.205,0-3.997,1.796-3.997,3.997
		c0,2.202,1.792,3.997,3.997,3.997c2.206,0,3.999-1.795,3.999-3.997C259.825,317.581,258.032,315.785,255.827,315.785z"/>
	<path style="fill:#116FFF;" d="M255.827,339.767c-2.209,0-3.997-1.788-3.997-3.997v-7.994c0-2.21,1.788-3.998,3.997-3.998
		c2.209,0,3.999,1.788,3.999,3.998v7.994C259.825,337.979,258.036,339.767,255.827,339.767z"/>
	<path style="fill:#116FFF;" d="M283.807,299.952h-55.961c-2.21,0-3.998-1.78-3.998-3.997c0-2.202,1.788-3.998,3.998-3.998h55.961
		c2.209,0,3.998,1.796,3.998,3.998C287.806,298.172,286.016,299.952,283.807,299.952z"/>
	<path style="fill:#116FFF;" d="M203.866,298.436c-0.082,0-0.164,0-0.246-0.008c-97.656-5.91-158.381-27.192-185.886-39.344
		c-10.422-4.61-15.587-7.702-15.802-7.831C0.734,250.532,0,249.232,0,247.831V135.908c0-24.246,19.725-43.97,43.97-43.97h423.711
		c24.25,0,43.971,19.725,43.971,43.97v111.924c0,1.397-0.734,2.689-1.922,3.416c-0.373,0.23-9.461,5.703-27.98,12.862
		c-32.938,12.874-89.828,29.27-173.717,34.32c-2.139,0.156-4.1-1.538-4.232-3.747c-0.133-2.21,1.547-4.099,3.748-4.231
		c82.857-4.989,138.891-21.127,171.312-33.794c13.055-5.047,21.299-9.259,24.797-11.16v-109.59
		c0-19.838-16.139-35.976-35.977-35.976H43.971c-19.838,0-35.976,16.137-35.976,35.976v109.585
		c2.292,1.241,6.613,3.466,12.972,6.277c27.013,11.94,86.726,32.849,183.137,38.681c2.202,0.133,3.88,2.021,3.748,4.231
		C207.723,296.797,205.962,298.436,203.866,298.436z"/>
	<path style="fill:#116FFF;" d="M267.819,279.809h-23.984c-2.21,0-3.998-1.788-3.998-3.997s1.788-3.997,3.998-3.997h23.984
		c2.209,0,3.996,1.788,3.996,3.997S270.028,279.809,267.819,279.809z"/>
	<path style="fill:#116FFF;" d="M283.807,263.819c-2.209,0-3.996-1.787-3.996-3.997c0-13.226-10.76-23.983-23.985-23.983
		s-23.983,10.758-23.983,23.983c0,2.21-1.788,3.997-3.997,3.997c-2.21,0-3.998-1.787-3.998-3.997
		c0-17.633,14.346-31.979,31.978-31.979c17.629,0,31.979,14.346,31.979,31.979C287.806,262.033,286.016,263.819,283.807,263.819z"/>
	<path style="fill:#116FFF;" d="M387.737,123.916H123.916c-2.209,0-3.997-1.788-3.997-3.998s1.788-3.998,3.997-3.998h263.821
		c2.209,0,3.998,1.788,3.998,3.998S389.946,123.916,387.737,123.916z"/>
	<path style="fill:#116FFF;" d="M331.774,67.954H179.878c-2.209,0-3.997-1.788-3.997-3.998V47.968c0-1.039,0.406-2.038,1.128-2.783
		c0.684-0.703,17.395-17.203,78.817-17.203c61.342,0,78.127,16.492,78.805,17.195c0.734,0.745,1.141,1.749,1.141,2.791v15.988
		C335.772,66.166,333.985,67.954,331.774,67.954z M183.876,59.959h143.902V49.868c-4.482-3.197-23.125-13.893-71.952-13.893
		c-48.795,0-67.423,10.657-71.951,13.897L183.876,59.959L183.876,59.959z"/>
	<path style="fill:#116FFF;" d="M179.878,83.943c-2.209,0-3.997-1.788-3.997-3.998V63.956c0-2.209,1.788-3.997,3.997-3.997
		c2.21,0,3.998,1.788,3.998,3.997v15.99C183.876,82.155,182.088,83.943,179.878,83.943z"/>
	<path style="fill:#116FFF;" d="M195.868,83.943c-2.209,0-3.997-1.788-3.997-3.998V63.956c0-2.209,1.788-3.997,3.997-3.997
		s3.997,1.788,3.997,3.997v15.99C199.865,82.155,198.077,83.943,195.868,83.943z"/>
	<path style="fill:#116FFF;" d="M315.786,83.943c-2.209,0-3.998-1.788-3.998-3.998V63.956c0-2.209,1.789-3.997,3.998-3.997
		s3.998,1.788,3.998,3.997v15.99C319.784,82.155,317.995,83.943,315.786,83.943z"/>
	<path style="fill:#116FFF;" d="M331.774,83.943c-2.209,0-3.996-1.788-3.996-3.998V63.956c0-2.209,1.787-3.997,3.996-3.997
		c2.211,0,3.998,1.788,3.998,3.997v15.99C335.772,82.155,333.985,83.943,331.774,83.943z"/>
	<path style="fill:#116FFF;" d="M255.827,451.691c-2.209,0-3.997-1.788-3.997-3.997v-79.945c0-2.21,1.788-3.998,3.997-3.998
		c2.209,0,3.999,1.788,3.999,3.998v79.945C259.825,449.904,258.036,451.691,255.827,451.691z"/>
</g>
<g>
</g>
<g>
</g>
<g>
</g>
<g>
</g>
<g>
</g>
<g>
</g>
<g>
</g>
<g>
</g>
<g>
</g>
<g>
</g>
<g>
</g>
<g>
</g>
<g>
</g>
<g>
</g>
<g>
</g>
</svg>
